<svg width="206" height="59" viewBox="0 0 206 59" fill="none" xmlns="http://www.w3.org/2000/svg">
<g clip-path="url(#clip0_834_872)">
<path d="M30.479 15.7212V17.4121H49.4342C51.5514 17.4121 53.2728 19.1978 53.2728 21.3946V43.126H57.7393V24.1161C57.7393 19.3305 53.8803 15.7212 49.6444 15.7212H30.479ZM41.5844 30.1014L30.479 22.7065V24.8566L40.4692 31.5081C42.2471 32.6947 42.7068 35.2573 41.4915 37.2193L37.8342 43.123H43.1491L43.7335 42.1698C46.5613 37.5532 44.9255 32.3259 41.5829 30.1014M35.9142 32.5037L30.4746 26.6641V29.2661L34.5191 33.6058C35.9882 35.1859 35.8765 37.7952 34.2523 39.4089C33.3126 40.3418 30.4746 43.123 30.4746 43.123H36.4682C39.3569 38.3666 37.9691 34.7106 35.9142 32.5037ZM51.9226 33.2909C52.8769 28.7414 50.5595 23.8916 45.8334 22.7706L30.4804 19.1278V20.985L45.2649 24.4966C47.3299 24.9616 48.6279 27.1933 48.1507 29.4746L45.2925 43.123H49.8619L51.9241 33.2894L51.9226 33.2909ZM72.9428 32.3463V35.8827H83.1375V38.5036H70.1686V20.0666H82.8896V22.6875H72.9443V29.3594C73.8072 28.3289 75.1225 27.67 76.5726 27.67H81.8585V30.2865H75.0775C73.9144 30.2865 72.9544 31.2165 72.9443 32.3463H72.9428ZM131.214 25.4426H128.725V38.5007H131.214V25.4426ZM113.266 20.0651H110.778V38.5007H113.266V20.0666V20.0651ZM174.317 25.2006C172.874 25.2006 171.565 25.8551 170.701 26.8857V25.4426H168.155V38.5007H170.701C170.701 38.5007 170.713 30.2326 170.713 29.6918C170.713 28.6437 171.73 27.8362 172.821 27.8362H175.49V25.2021H174.317V25.2006ZM96.788 25.4426H93.7717L90.6798 29.9746L87.5663 25.4426H84.5499L89.0571 31.7413L84.3166 38.5007H87.3531L90.6813 33.562L93.963 38.5007H97.0244L92.2852 31.7413L96.7909 25.4426H96.788ZM109.219 29.6335C108.511 27.0329 106.011 25.2021 103.045 25.2021C99.5215 25.2021 96.482 27.6714 96.482 31.9964C96.482 35.8973 99.1228 38.7645 103.045 38.7645C106.004 38.7645 108.501 36.9409 109.214 34.3491L106.703 33.7063C106.244 35.2501 104.803 36.2908 103.04 36.2908C100.415 36.2908 99.072 34.2136 99.072 31.9935C99.072 29.5081 100.631 27.6772 103.037 27.6772C104.8 27.6772 106.243 28.7195 106.7 30.2647L109.217 29.6321L109.219 29.6335ZM126.759 29.8827V38.5007H124.492L124.514 36.9832C123.48 38.1858 121.252 38.7645 119.593 38.7645C116.754 38.7645 114.706 37.6741 114.706 34.9366C114.706 30.205 120.329 30.5693 124.259 30.5693V29.8827C124.259 28.5752 123.306 27.3667 121.815 27.3667H119.888C118.501 27.3667 117.76 28.4469 117.76 29.8827H115.259C115.259 26.0184 118.146 25.2006 119.957 25.2006H121.747C124.802 25.2006 126.76 27.2094 126.76 29.8827H126.759ZM124.259 32.8623C120.935 32.8623 117.185 32.6203 117.185 34.9147C117.185 35.9118 117.821 36.4497 119.502 36.4497C121.705 36.4497 124.07 35.2193 124.243 33.269C124.253 33.148 124.259 33.0372 124.259 32.925V32.8623ZM130.033 20.0666C129.092 20.0666 128.331 20.8333 128.331 21.7779C128.331 22.7225 129.093 23.4893 130.033 23.4893C130.973 23.4893 131.736 22.7225 131.736 21.7779C131.736 20.8333 130.973 20.0666 130.033 20.0666ZM164.144 34.4045L166.518 34.9716C165.604 37.5619 163.196 38.7645 160.667 38.7645C156.775 38.7645 154.056 35.9221 154.056 31.8521C154.056 27.998 156.821 25.2006 160.422 25.2006C164.391 25.2006 166.918 28.4498 166.478 32.9235H156.684C157.135 35.406 158.896 36.3666 160.69 36.3666C162.849 36.3666 163.773 35.1232 164.144 34.4031V34.4045ZM156.734 30.6611H163.849C163.849 30.6611 163.516 27.5942 160.395 27.5942C157.274 27.5942 156.734 30.6611 156.734 30.6611ZM152.697 29.4498V38.5007H150.216V29.9163C150.216 28.772 149.278 27.8405 148.124 27.8362H146.317C145.16 27.8362 144.219 28.7705 144.219 29.9163V38.5007H141.732V29.9163C141.732 28.772 140.782 27.8405 139.613 27.8362H137.784C136.613 27.8362 135.66 28.7705 135.66 29.9163L135.654 38.5007H133.174V25.4411H135.654V26.8843C135.654 26.8843 136.874 25.2006 139.329 25.2006C141.784 25.2006 143.218 26.8464 143.639 27.7444C144.181 26.6467 145.554 25.2006 148.002 25.2006C150.672 25.2006 152.693 27.3814 152.693 29.4498H152.697Z" fill="#222222"/>
</g>
<defs>
<clipPath id="clip0_834_872">
<rect width="145.017" height="27.4048" fill="white" transform="translate(30.4746 15.7212)"/>
</clipPath>
</defs>
</svg>
